<svg width="434" height="430" viewBox="0 0 434 430" fill="none" xmlns="http://www.w3.org/2000/svg">
<g filter="url(#filter0_d)">
<path d="M375.5 159.5C375.5 128.833 359.667 113.5 328 113.5H284V271H328C359.667 271 375.5 255.833 375.5 225.5V159.5ZM248.5 82H330C356.333 82 376.333 88.8333 390 102.5C404 116.167 411 134.5 411 157.5V227C411 250.333 404.167 268.833 390.5 282.5C376.833 295.833 356.667 302.5 330 302.5H284V418H248.5V82Z" fill="url(#paint0_linear)" fill-opacity="0.7" shape-rendering="crispEdges"/>
</g>
<g filter="url(#filter1_d)">
<path d="M175 336L154.5 242H64.5L44 336H8.5L84.5 -2.52724e-05H134.5L210.5 336H175ZM71 211H147.5L109 34.5L71 211Z" fill="url(#paint1_linear)" fill-opacity="0.7" shape-rendering="crispEdges"/>
</g>
<defs>
<filter id="filter0_d" x="246.5" y="82" width="166.5" height="340" filterUnits="userSpaceOnUse" color-interpolation-filters="sRGB">
<feFlood flood-opacity="0" result="BackgroundImageFix"/>
<feColorMatrix in="SourceAlpha" type="matrix" values="0 0 0 0 0 0 0 0 0 0 0 0 0 0 0 0 0 0 127 0" result="hardAlpha"/>
<feOffset dy="2"/>
<feGaussianBlur stdDeviation="1"/>
<feComposite in2="hardAlpha" operator="out"/>
<feColorMatrix type="matrix" values="0 0 0 0 0.207843 0 0 0 0 0.223529 0 0 0 0 0.298039 0 0 0 1 0"/>
<feBlend mode="normal" in2="BackgroundImageFix" result="effect1_dropShadow"/>
<feBlend mode="normal" in="SourceGraphic" in2="effect1_dropShadow" result="shape"/>
</filter>
<filter id="filter1_d" x="6.5" y="0" width="206" height="340" filterUnits="userSpaceOnUse" color-interpolation-filters="sRGB">
<feFlood flood-opacity="0" result="BackgroundImageFix"/>
<feColorMatrix in="SourceAlpha" type="matrix" values="0 0 0 0 0 0 0 0 0 0 0 0 0 0 0 0 0 0 127 0" result="hardAlpha"/>
<feOffset dy="2"/>
<feGaussianBlur stdDeviation="1"/>
<feComposite in2="hardAlpha" operator="out"/>
<feColorMatrix type="matrix" values="0 0 0 0 0.207843 0 0 0 0 0.223529 0 0 0 0 0.298039 0 0 0 1 0"/>
<feBlend mode="normal" in2="BackgroundImageFix" result="effect1_dropShadow"/>
<feBlend mode="normal" in="SourceGraphic" in2="effect1_dropShadow" result="shape"/>
</filter>
<linearGradient id="paint0_linear" x1="214" y1="171.012" x2="444.064" y2="326.684" gradientUnits="userSpaceOnUse">
<stop stop-color="#DDEDD9"/>
<stop offset="0.682292" stop-color="#DDEDD9" stop-opacity="0.54"/>
</linearGradient>
<linearGradient id="paint1_linear" x1="2.4007e-06" y1="76.1618" x2="246.063" y2="224.427" gradientUnits="userSpaceOnUse">
<stop stop-color="#DDEDD9"/>
<stop offset="0.765625" stop-color="#DDEDD9"/>
</linearGradient>
</defs>
</svg>
