<svg width="46" height="46" viewBox="0 0 46 46" fill="none" xmlns="http://www.w3.org/2000/svg">
<g filter="url(#filter0_d)">
<path d="M40.15 16.15C40.15 13.0833 38.5667 11.55 35.4 11.55H31V27.3H35.4C38.5667 27.3 40.15 25.7833 40.15 22.75V16.15ZM27.45 8.4H35.6C38.2333 8.4 40.2333 9.08333 41.6 10.45C43 11.8167 43.7 13.65 43.7 15.95V22.9C43.7 25.2333 43.0167 27.0833 41.65 28.45C40.2833 29.7833 38.2667 30.45 35.6 30.45H31V42H27.45V8.4Z" fill="url(#paint0_linear)" fill-opacity="0.7" shape-rendering="crispEdges"/>
</g>
<g filter="url(#filter1_d)">
<path d="M19.5 34L17.45 24.6H8.45L6.4 34H2.85L10.45 0.399997H15.45L23.05 34H19.5ZM9.1 21.5H16.75L12.9 3.85L9.1 21.5Z" fill="url(#paint1_linear)" fill-opacity="0.7" shape-rendering="crispEdges"/>
</g>
<defs>
<filter id="filter0_d" x="25.4502" y="8.3999" width="20.25" height="37.6" filterUnits="userSpaceOnUse" color-interpolation-filters="sRGB">
<feFlood flood-opacity="0" result="BackgroundImageFix"/>
<feColorMatrix in="SourceAlpha" type="matrix" values="0 0 0 0 0 0 0 0 0 0 0 0 0 0 0 0 0 0 127 0" result="hardAlpha"/>
<feOffset dy="2"/>
<feGaussianBlur stdDeviation="1"/>
<feComposite in2="hardAlpha" operator="out"/>
<feColorMatrix type="matrix" values="0 0 0 0 0.207843 0 0 0 0 0.223529 0 0 0 0 0.298039 0 0 0 1 0"/>
<feBlend mode="normal" in2="BackgroundImageFix" result="effect1_dropShadow"/>
<feBlend mode="normal" in="SourceGraphic" in2="effect1_dropShadow" result="shape"/>
</filter>
<filter id="filter1_d" x="0.850098" y="0.399902" width="24.2" height="37.6" filterUnits="userSpaceOnUse" color-interpolation-filters="sRGB">
<feFlood flood-opacity="0" result="BackgroundImageFix"/>
<feColorMatrix in="SourceAlpha" type="matrix" values="0 0 0 0 0 0 0 0 0 0 0 0 0 0 0 0 0 0 127 0" result="hardAlpha"/>
<feOffset dy="2"/>
<feGaussianBlur stdDeviation="1"/>
<feComposite in2="hardAlpha" operator="out"/>
<feColorMatrix type="matrix" values="0 0 0 0 0.207843 0 0 0 0 0.223529 0 0 0 0 0.298039 0 0 0 1 0"/>
<feBlend mode="normal" in2="BackgroundImageFix" result="effect1_dropShadow"/>
<feBlend mode="normal" in="SourceGraphic" in2="effect1_dropShadow" result="shape"/>
</filter>
<linearGradient id="paint0_linear" x1="24" y1="25.2948" x2="28.2832" y2="36.4891" gradientUnits="userSpaceOnUse">
<stop stop-color="#DDEDD9"/>
<stop offset="0.682292" stop-color="#DDEDD9" stop-opacity="0.54"/>
</linearGradient>
<linearGradient id="paint1_linear" x1="2" y1="17.2948" x2="6.14194" y2="28.612" gradientUnits="userSpaceOnUse">
<stop stop-color="#DDEDD9"/>
<stop offset="0.765625" stop-color="#DDEDD9"/>
</linearGradient>
</defs>
</svg>
